<svg xmlns="http://www.w3.org/2000/svg" viewBox="0 0 533.5 544.3" width="24" height="24">
  <path fill="#4285F4" d="M533.5 278.4c0-18.5-1.5-36.3-4.3-53.7H272v101.6h146.9c-6.3 34.1-25.3 62.9-54 82.2v68.3h87.2c51-47 80.4-116.4 80.4-198.4z"/>
  <path fill="#34A853" d="M272 544.3c73.7 0 135.6-24.4 180.8-66.4l-87.2-68.3c-24.3 16.3-55.3 25.9-93.6 25.9-71.9 0-132.9-48.6-154.7-113.9H28.3v71.5C73.5 485 165 544.3 272 544.3z"/>
  <path fill="#FBBC05" d="M117.3 322.1c-10.8-32.4-10.8-67.3 0-99.7V150.9H28.3c-39.6 78.9-39.6 167.9 0 246.8l89-75.6z"/>
  <path fill="#EA4335" d="M272 107.7c39.9-.6 75.9 14.1 104.1 40.9l78-78C407.6 24.7 345.7 0 272 0 165 0 73.5 59.3 28.3 150.9l89 71.5C139.1 156.3 200.1 107.7 272 107.7z"/>
</svg>